<svg xmlns="http://www.w3.org/2000/svg" xmlns:xlink="http://www.w3.org/1999/xlink" version="1.1" x="0px" y="0px" viewBox="0 0 50 62.5" style="enable-background:new 0 0 50 50;" xml:space="preserve"><g><path d="M32.6,7.8c-1.4,0.3-2.5,1.4-2.8,2.8h2.8V7.8z"/><path d="M34.1,7.8v2.8h2.8C36.6,9.2,35.5,8.1,34.1,7.8z"/><path d="M32.6,14.9v-2.8h-2.8C30,13.5,31.2,14.6,32.6,14.9z"/><path d="M36.9,12.1h-2.8v2.8C35.5,14.6,36.6,13.5,36.9,12.1z"/><path d="M49,24.7c-3.6-0.8-6.9,1.9-6.9,5.5c0,2.7,1.9,4.9,4.4,5.5C48.2,32.4,49,28.7,49,24.7z"/><path d="M47.3,16.1C43.8,7.3,35.1,1,25,1C17.5,1,10.8,4.4,6.4,9.8c2-0.1,4.1-0.2,6.3-0.5c0.5-0.1,1,0.3,1.1,0.9s-0.3,1.1-0.9,1.1   c-2.8,0.4-5.5,0.6-8.1,0.6c-0.5,0.7-0.9,1.4-1.2,2.1c4.4,0.2,9.2-0.2,14.1-1.2c0.5-0.1,1.1,0.2,1.2,0.8c0.1,0.5-0.2,1.1-0.8,1.2   c-5,1-10.2,1.6-15.4,1.2c-0.3,0.7-0.5,1.3-0.7,2c7.4,0.8,14.4-0.4,19.5-1.7c0.5-0.1,1.1,0.2,1.2,0.7s-0.2,1.1-0.7,1.2   c-6.7,1.7-13.8,2.5-20.5,1.7c-0.1,0.6-0.2,1.3-0.3,1.9c7.6,1.1,16.2,0.3,24.8-2.4c0.5-0.2,1.1,0.1,1.3,0.6c0.2,0.5-0.1,1.1-0.6,1.3   C18.4,23.9,9.5,25.1,1,23.8c0,0.8,0,1.5,0,2.3C12.3,27.7,35.1,24,47.3,16.1z M33.3,5.7c3.1,0,5.7,2.5,5.7,5.7   c0,3.1-2.5,5.7-5.7,5.7s-5.7-2.5-5.7-5.7C27.7,8.2,30.2,5.7,33.3,5.7z"/><path d="M40.6,30.2c0-4.3,3.9-7.8,8.3-7c-0.1-1.8-0.5-3.5-1-5.2C35.7,25.6,13.6,29.9,1.2,28.3c0.1,0.6,0.2,1.2,0.3,1.8   c7.9,1.4,16.9,0.7,26-2.3c0.5-0.2,1.1,0.1,1.3,0.6c0.2,0.5-0.1,1.1-0.6,1.3c-8.3,2.7-17.4,3.8-26.1,2.5c0.2,0.7,0.5,1.4,0.8,2.1   c7.8,1.3,15.4,0.3,20.9-1c0.5-0.1,1.1,0.2,1.2,0.7c0.1,0.5-0.2,1.1-0.8,1.2c-6.6,1.5-13.5,2.1-20.3,1.2c0.4,0.8,0.9,1.5,1.3,2.2   c4.8,0.6,10.1,0.5,15.8-0.4c0.6-0.1,1.1,0.3,1.1,0.8c0.1,0.5-0.3,1.1-0.8,1.1c-5.9,1-10.4,1-14.4,0.7c0.7,0.8,1.5,1.6,2.3,2.3   c3.5,0.2,7.2,0.1,11.1-0.5c0.5-0.1,1.1,0.3,1.1,0.9c0.1,0.5-0.3,1.1-0.9,1.1c-2.9,0.4-5.7,0.6-8.6,0.6c3.8,2.4,8.2,3.9,13,3.9   c8.9,0,16.6-4.8,20.8-12C42.8,36.2,40.6,33.5,40.6,30.2z M34.9,44.1c-2.7,0-4.9-2.2-4.9-4.9c0-2.7,2.2-4.9,4.9-4.9s4.9,2.2,4.9,4.9   C39.7,41.9,37.6,44.1,34.9,44.1z"/><circle cx="34.9" cy="39.2" r="3.4"/></g><text x="0" y="65" fill="#000000" font-size="5px" font-weight="bold" font-family="'Helvetica Neue', Helvetica, Arial-Unicode, Arial, Sans-serif">Created by Vectors Market</text><text x="0" y="70" fill="#000000" font-size="5px" font-weight="bold" font-family="'Helvetica Neue', Helvetica, Arial-Unicode, Arial, Sans-serif">from the Noun Project</text></svg>