<svg xmlns="http://www.w3.org/2000/svg" xmlns:xlink="http://www.w3.org/1999/xlink" version="1.1" x="0px" y="0px" viewBox="0 0 50 62.5" style="enable-background:new 0 0 50 50;" xml:space="preserve"><g><path d="M47.3,42.6c-5.9-27.9-5.1-29.5-8.2-34.1c-2.6,1.5-3.6,3.4-4.7,5.2c0.7-2.5,1-4.5,3.2-7c-0.6-0.7-1.3-1.3-2-1.9   c-2.1,2-3.7,4.7-4.9,7.3c0.6-2.9,1.6-5.9,3.2-8.5c-1.3-0.8-2.8-1.5-4.4-2c-1.1,3.2-1.3,6.7-1,10.1c-1-3.4-1.6-7.1-1-10.6   c-2-0.3-3.5-0.3-5.5,0c0.5,3.5,0,7.2-1,10.6c0.3-3.4,0.2-6.9-1-10.1c-1.6,0.5-3,1.1-4.4,2c1.7,2.5,2.7,5.6,3.2,8.5   c-1.1-2.6-2.8-5.4-4.9-7.3c-0.7,0.6-1.3,1.2-2,1.9c2.3,2.5,2.6,4.6,3.2,7c-1.3-2-2.1-3.7-4.7-5.2c-1.4,2-2.3,4.4-2.8,7L2.7,42.6   c-0.1,0.7,0.5,1.4,1.2,1.4h8.9l2.9,2.9c0.5,0.5,1.2,0.5,1.7,0l2.3-2.3l4.1,4.1c0.5,0.5,1.2,0.5,1.7,0l4-4.1l2.3,2.3   c0.5,0.5,1.2,0.5,1.7,0l2.9-2.9h9.7C46.9,43.9,47.4,43.3,47.3,42.6z M28.9,17.6h6.1c0.1,1.1-1,2.3-2.6,3c-1.8,0.7-3.7,0.3-4.1-0.8   C28,19.1,28.2,18.3,28.9,17.6z M23.3,25.2h3.5c0.4,0,0.8,0.2,1,0.6c-1.6,0.4-2.4,2.1-1.8,3.6l0,0.1c-0.4,0.7-1.4,0.6-1.8,0l0-0.1   c0.6-1.5-0.2-3.2-1.8-3.6C22.5,25.4,22.8,25.2,23.3,25.2z M21.1,17.6c0.6,0.7,0.9,1.5,0.6,2.1c-0.5,1.2-2.3,1.5-4.1,0.8   c-1.6-0.6-2.7-1.9-2.6-3H21.1z M13.5,33.9c-0.3,0.3-0.9,0.4-1.3,0c-0.4-0.4-0.4-0.9,0-1.3c0.2-0.2,3.3-3.3,7.8-5   c0.1,0.2,0.2,0.5,0.3,0.7l0.6,0.9C16.6,30.8,13.5,33.9,13.5,33.9z M30.3,37.8h-9.1c-1.1,0-2.1-0.7-2.1-1.7c0-1.1,1.4-1.9,2.7-1.6   l8.6,2.4C31.1,37.1,30.9,37.8,30.3,37.8z M37.7,34c-0.4,0.3-1,0.3-1.3-0.1c-2.2-2.6-4.6-4.3-7.2-5.1c0.1-0.3,0.6-0.6,0.8-1.6   c2.8,0.9,5.4,2.8,7.7,5.5C38.2,33.1,38.1,33.7,37.7,34z"/></g><text x="0" y="65" fill="#000000" font-size="5px" font-weight="bold" font-family="'Helvetica Neue', Helvetica, Arial-Unicode, Arial, Sans-serif">Created by Vectors Market</text><text x="0" y="70" fill="#000000" font-size="5px" font-weight="bold" font-family="'Helvetica Neue', Helvetica, Arial-Unicode, Arial, Sans-serif">from the Noun Project</text></svg>