<svg xmlns="http://www.w3.org/2000/svg" xmlns:xlink="http://www.w3.org/1999/xlink" version="1.1" x="0px" y="0px" viewBox="0 0 50 62.5" style="enable-background:new 0 0 50 50;" xml:space="preserve"><g><path d="M13,24.3c-6.7,0-12,5.4-12,12c0,6.7,5.4,12,12,12c6.7,0,12-5.4,12-12C25.1,29.7,19.7,24.3,13,24.3z M9.7,45.2   c-0.1,0.1-0.2,0.1-0.3,0.1c-0.3,0-0.5-0.1-0.7-0.4c-0.2-0.4,0-0.8,0.3-1c0.7-0.3,0.2-3-1.3-4c-1.3-0.9-1.3,1-0.6,2.3   c0.2,0.4,0,0.8-0.3,1c-0.4,0.2-0.8,0-1-0.3c-2.3-4.7,2.2-6.7,4.4-2.2C11.2,42.7,10.9,44.6,9.7,45.2z M15.6,30.7c0-0.9-1.7-2-4.1-2   c-2.4,0-4.1,1-4.1,2s1.7,2,4.1,2c0.4,0,0.7,0.3,0.7,0.7s-0.3,0.7-0.7,0.7c-3.1,0-5.5-1.5-5.5-3.4c0-4.6,11.1-4.6,11.1,0   c0,0.4-0.3,0.7-0.7,0.7C15.9,31.5,15.6,31.1,15.6,30.7z M17.2,40.9c-0.4,0-0.7-0.3-0.7-0.7c0-0.4,0.3-0.7,0.7-0.7   c1.3,0,2.2-0.6,2.2-1.2c0-0.6-0.9-1.2-2.2-1.2c-0.4,0-0.7-0.3-0.7-0.7s0.3-0.7,0.7-0.7c2.1,0,3.7,1.2,3.7,2.6   C20.9,39.8,19.3,40.9,17.2,40.9z"/><path d="M41,11.5c0-5.5-4.4-9.9-9.9-9.9c-5.5,0-9.9,4.4-9.9,9.9s4.4,9.9,9.9,9.9C36.5,21.4,41,17,41,11.5z M28.3,18.9   c-0.1,0-0.2,0.1-0.3,0.1c-0.2,0-0.4-0.1-0.5-0.3c-0.1-0.3,0-0.7,0.3-0.8c0.3-0.1,0.4-1.1-0.1-2.1c-0.3-0.5-0.6-0.9-1-1.2   c-0.3-0.2-0.5-0.2-0.6-0.2c-0.3,0.1-0.4,1.1,0.1,2.1c0.1,0.3,0,0.7-0.3,0.8c-0.3,0.1-0.7,0-0.8-0.3c-0.8-1.6-0.6-3.2,0.4-3.7   c0.5-0.3,1.2-0.2,1.8,0.3c0.5,0.4,1,1,1.4,1.7C29.5,16.7,29.4,18.3,28.3,18.9z M33.2,7c0-0.8-1.4-1.6-3.3-1.6S26.5,6.2,26.5,7   c0,0.8,1.4,1.6,3.3,1.6c0.3,0,0.6,0.3,0.6,0.6c0,0.3-0.3,0.6-0.6,0.6c-2.6,0-4.6-1.2-4.6-2.8c0-1.6,2-2.8,4.6-2.8s4.6,1.2,4.6,2.8   c0,0.3-0.3,0.6-0.6,0.6S33.2,7.3,33.2,7z M34.5,15.3c-0.3,0-0.6-0.3-0.6-0.6c0-0.3,0.3-0.6,0.6-0.6c1,0,1.8-0.5,1.8-1   c0-0.5-0.8-1-1.8-1c-0.3,0-0.6-0.3-0.6-0.6c0-0.3,0.3-0.6,0.6-0.6c1.7,0,3,0.9,3,2.2C37.5,14.4,36.2,15.3,34.5,15.3z"/><path d="M40.6,27.3c-4.6,0-8.4,3.8-8.4,8.4s3.8,8.4,8.4,8.4c4.6,0,8.4-3.8,8.4-8.4S45.2,27.3,40.6,27.3z M38.3,41.9   c-0.1,0-0.1,0.1-0.2,0.1c-0.2,0-0.4-0.1-0.5-0.3c-0.1-0.3,0-0.6,0.2-0.7c0.2-0.1,0.3-0.9-0.1-1.8c-0.2-0.4-0.5-0.8-0.8-1   C36.7,38,36.5,38,36.4,38c-0.2,0.1-0.3,0.9,0.1,1.8c0.1,0.3,0,0.6-0.2,0.7c-0.3,0.1-0.6,0-0.7-0.2c-0.7-1.4-0.5-2.7,0.4-3.1   c0.5-0.2,1-0.1,1.6,0.2c0.5,0.3,0.9,0.8,1.2,1.4C39.3,40.1,39.2,41.5,38.3,41.9z M42.4,31.8c0-0.6-1.2-1.4-2.8-1.4   c-1.7,0-2.8,0.7-2.8,1.4s1.2,1.4,2.8,1.4c0.3,0,0.5,0.2,0.5,0.5s-0.2,0.5-0.5,0.5c-2.2,0-3.9-1.1-3.9-2.4c0-3.2,7.7-3.2,7.7,0   c0,0.3-0.2,0.5-0.5,0.5S42.4,32.1,42.4,31.8z M43.5,38.9c-0.3,0-0.5-0.2-0.5-0.5c0-0.3,0.2-0.5,0.5-0.5c0.9,0,1.5-0.4,1.5-0.8   c0-0.4-0.7-0.8-1.5-0.8c-0.3,0-0.5-0.2-0.5-0.5s0.2-0.5,0.5-0.5c1.4,0,2.6,0.8,2.6,1.8C46.1,38.1,45,38.9,43.5,38.9z"/></g><text x="0" y="65" fill="#000000" font-size="5px" font-weight="bold" font-family="'Helvetica Neue', Helvetica, Arial-Unicode, Arial, Sans-serif">Created by Vectors Market</text><text x="0" y="70" fill="#000000" font-size="5px" font-weight="bold" font-family="'Helvetica Neue', Helvetica, Arial-Unicode, Arial, Sans-serif">from the Noun Project</text></svg>