<svg xmlns="http://www.w3.org/2000/svg" xmlns:xlink="http://www.w3.org/1999/xlink" version="1.1" x="0px" y="0px" viewBox="0 0 50 62.5" style="enable-background:new 0 0 50 50;" xml:space="preserve"><g><polygon points="48.8,10.2 42.5,8.1 42.5,5 27.9,5 27.9,8.1 21.6,10.2 21.6,17.3 48.8,17.3  "/><path d="M37.7,25.2l-0.4,2.5c0.3-0.1,0.7-0.2,1.1-0.2c0.8,0,1.5,0.2,2.1,0.6l0.5-3H37.7z"/><path d="M37.4,35.2l1,3.8h3.3l-1.2-4.4C39.6,35.3,38.3,35.5,37.4,35.2z"/><path d="M41.8,40.9h-3.4c-0.6,0-1,0.5-1,1v1.2h5.5v-1.2C42.9,41.3,42.4,40.9,41.8,40.9z"/><path d="M30.3,41.1h-3.4c-0.6,0-1,0.5-1,1v1.2h5.5v-1.2C31.4,41.6,30.9,41.1,30.3,41.1z"/><path d="M40.2,31.4c0-1.1-0.9-1.9-1.9-1.9c-1.1,0-1.9,0.9-1.9,1.9c0,1,0.8,1.9,1.9,1.9C39.4,33.4,40.2,32.5,40.2,31.4z"/><path d="M19.6,30.8v-2.6l-1.5,1.3c0.5,0.5,0.9,1.2,1,1.9C19.3,31.2,19.4,31,19.6,30.8z"/><path d="M25.6,35.8c-0.6,0.8-1.5,1.3-2.5,1.4c0,0-0.1,0-0.1,0c-0.2,0-0.3,0-0.5,0c-1,0-1.9-0.4-2.6-1l-0.7,3.9h3.3l0.6-2.9l2.6,1.8   h4.6L25.6,35.8z"/><path d="M15.4,30.3c-1.1,0-1.9,0.9-1.9,1.9c0,1.1,0.9,1.9,1.9,1.9c1.1,0,1.9-0.9,1.9-1.9C17.3,31.3,16.5,30.3,15.4,30.3z"/><path d="M43.6,37.2l1,3.8h3.3l-1.2-4.4C45.7,37.3,44.5,37.4,43.6,37.2z"/><path d="M24.5,30c0-0.1,0.5-2.4,0.4-2.2h0l0.5-2.6l3.3-2c0.8,0,13.4,0,13,0l2.4,2.1l-0.4,2.2l-0.4,2.1c0.3-0.1,0.7-0.2,1.1-0.2   c0.8,0,1.5,0.2,2.1,0.6l0-0.2l0.5-2.8l1.8-3.9v-4H21.6c0,0.2-0.3,7.9-0.4,10.5C22.3,29.3,23.5,29.4,24.5,30z"/><path d="M48,42.8h-3.4c-0.6,0-1,0.5-1,1V45H49v-1.2C49,43.3,48.5,42.8,48,42.8z"/><path d="M22.7,42.2h-3.4c-0.6,0-1,0.5-1,1v1.2h5.5v-1.2C23.7,42.7,23.3,42.2,22.7,42.2z"/><path d="M46.4,33.4c0-1.1-0.9-1.9-1.9-1.9c-1.1,0-1.9,0.9-1.9,1.9c0,1,0.8,1.9,1.9,1.9C45.5,35.3,46.4,34.4,46.4,33.4z"/><path d="M22.5,35.3c1.1,0,1.9-0.9,1.9-1.9c0-2.5-3.9-2.6-3.9,0C20.6,34.5,21.5,35.3,22.5,35.3z"/><path d="M1,14v3.3h11.8V9.6H5.4C3.7,11.3,2.7,12.3,1,14z M7.9,11.2c1.5,0,2.8,1.2,2.8,2.8s-1.2,2.8-2.8,2.8c-1.5,0-2.8-1.2-2.8-2.8   S6.4,11.2,7.9,11.2z"/><path d="M7.9,15.3c0.8,0,1.4-0.6,1.4-1.4c0-0.8-0.6-1.4-1.4-1.4c-0.7,0-1.4,0.6-1.4,1.4C6.5,14.7,7.1,15.3,7.9,15.3z"/><rect x="18.2" y="11.1" width="1.4" height="4.7"/><rect x="14.9" y="11.1" width="1.4" height="4.7"/></g><text x="0" y="65" fill="#000000" font-size="5px" font-weight="bold" font-family="'Helvetica Neue', Helvetica, Arial-Unicode, Arial, Sans-serif">Created by Vectors Market</text><text x="0" y="70" fill="#000000" font-size="5px" font-weight="bold" font-family="'Helvetica Neue', Helvetica, Arial-Unicode, Arial, Sans-serif">from the Noun Project</text></svg>