<?xml version="1.0" encoding="utf-8"?>
<!-- Generator: Adobe Illustrator 16.0.3, SVG Export Plug-In . SVG Version: 6.00 Build 0)  -->
<!DOCTYPE svg PUBLIC "-//W3C//DTD SVG 1.1//EN" "http://www.w3.org/Graphics/SVG/1.1/DTD/svg11.dtd">
<svg version="1.1" id="Layer_1" xmlns="http://www.w3.org/2000/svg" xmlns:xlink="http://www.w3.org/1999/xlink" x="0px" y="0px"
	 width="612px" height="792px" viewBox="0 0 612 792" enable-background="new 0 0 612 792" xml:space="preserve">
<g>
	<rect x="313.617" y="431.424" width="34.719" height="47.135"/>
	<path d="M362.365,295.673c-3.633-4.744-9.185-7.469-15.038-7.469c-10.976,0-19.178,9.084-19.178,19.075
		c0,9.185,7.268,18.975,19.076,18.975c1.011,0,1.213,0,0.202,0l38.151-0.403L362.365,295.673z M349.951,318.685h-1.615
		c-4.138,0-7.569-3.431-7.569-7.57c0-4.239,3.432-7.57,7.569-7.57h1.615c4.138,0,7.569,3.331,7.569,7.57
		C357.521,315.253,354.089,318.685,349.951,318.685z"/>
	<rect x="263.656" y="431.424" width="34.82" height="47.135"/>
	<path d="M281.823,298.903c-3.129-6.561-9.791-10.699-17.158-10.699c-5.854,0-11.405,2.725-15.039,7.469l-23.113,30.178l38.05,0.403
		c1.011,0,1.314,0,0.303,0C278.589,326.254,288.121,311.979,281.823,298.903z M263.656,318.685h-1.615
		c-4.138,0-7.57-3.431-7.57-7.57c0-4.239,3.432-7.57,7.57-7.57h1.615c4.138,0,7.569,3.331,7.569,7.57
		C271.226,315.253,267.794,318.685,263.656,318.685z"/>
	<path d="M395.471,454.94c0,13.021-14.332,23.618-31.995,23.618v-47.135c3.13,0,6.157,0.303,9.084,1.01
		C384.306,434.826,395.471,443.508,395.471,454.94z"/>
	<path d="M306,389.034c16.953,0,16.953-5.978,16.953-9.551c0-5.317-8.802-15.159-16.953-22.192
		c-8.151,7.033-16.953,16.875-16.953,22.192C289.047,383.056,289.047,389.034,306,389.034z"/>
	<path d="M248.517,431.424v47.135c-15.548,0-31.895-9.069-31.895-23.618c0-10.295,9.387-19.58,22.811-22.507
		C242.359,431.727,245.489,431.424,248.517,431.424z"/>
	<path d="M425.245,317.07c-1.615-19.177-13.424-36.84-31.692-47.64c-2.624-1.615-5.35-3.028-8.175-4.239
		c-3.533-1.514-5.35-5.45-4.239-9.083l9.185-30.38l-37.041,14.634c-6.618,2.511-12.644-4.287-9.589-10.396l15.745-32.399
		l-28.26,17.36c-0.102,0-0.102,0-0.102,0l-0.706,0.504c-5.156,3.094-12.537-0.889-11.305-8.276l7.671-31.187l-13.524,17.965
		c-1.413,1.817-3.634,2.927-5.955,2.927c-2.423,0-4.643-1.11-6.056-3.028l-13.524-17.864l7.67,31.188v0.101
		c1.232,4.512-2.531,9.688-8.275,9.084c-1.111-0.101-2.12-0.404-3.028-0.909l-0.303-0.202l-28.766-17.663l15.746,32.399
		c3.065,6.35-3.222,13.013-9.791,10.295l-38.555-16.856l10.295,31.692c1.211,3.734-0.605,7.772-4.34,9.286
		c-23.719,9.892-39.666,30.078-41.583,52.686l-13.928,212.156l17.057-23.517c1.715-2.321,4.541-3.533,7.469-2.928
		c2.826,0.505,5.147,2.624,5.955,5.45l20.489,77.313l14.534-38.354c1.11-2.927,4.239-4.844,7.267-4.844
		c3.23,0.101,6.056,2.118,6.964,5.247l18.874,58.843l16.048-50.061c1.009-3.13,3.937-5.249,7.267-5.249
		c3.23,0,6.157,2.119,7.166,5.249l19.177,59.852l23.719-73.78c0.908-3.028,3.734-5.147,6.964-5.249c3.331,0,6.157,1.918,7.268,4.845
		l16.855,44.813l20.69-78.625c0.706-2.624,2.726-4.643,5.35-5.35c2.623-0.706,5.45,0,7.367,2.02l30.279,30.38L425.245,317.07z
		 M316.543,292.342c11.048-22.869,42.345-26.108,57.833-5.854l32.399,42.189c1.715,2.221,2.019,5.35,0.808,7.873
		c-1.313,2.625-3.836,4.239-6.763,4.34l-53.19,0.505c-0.101,0-0.404,0-0.404,0c-18.873,0-34.215-15.341-34.215-34.115
		C313.011,302.032,314.222,297.086,316.543,292.342z M301.505,341.495c2.624-2.019,6.358-2.019,9.083,0
		c4.542,3.432,27.555,21.498,27.555,37.95c0,9.286-4.239,24.728-32.096,24.728c-27.958,0-32.096-15.443-32.096-24.728
		C273.951,362.993,296.862,344.927,301.505,341.495z M205.217,328.677l32.399-42.189c15.49-20.255,46.786-17.015,57.833,5.854
		c2.322,4.744,3.533,9.791,3.533,14.938c0,18.773-15.341,34.115-34.114,34.115h-0.504l-53.19-0.504
		c-2.927-0.101-5.45-1.716-6.762-4.34C203.199,334.026,203.501,330.897,205.217,328.677z M363.476,493.698H248.517
		c-23.872,0-47.034-15.399-47.034-38.758c0-20.249,19.616-38.655,47.034-38.655h114.959c24.672,0,47.135,15.894,47.135,38.655
		C410.61,476.338,389.415,493.698,363.476,493.698z"/>
	<path d="M460.539,176.361C452.541,97.181,385.592,22.772,306,22.772c-75.254,0-146.023,70.336-154.54,153.589l-33.246,326.264
		h38.352l15.117-186.623l0.003-0.044c0-0.003,0.001-0.006,0.001-0.006l0.009-0.107c2.129-26.203,18.974-49.612,44.502-62.49
		l-13.424-41.23c-0.927-2.833-0.099-5.948,2.109-7.949c2.208-2.005,5.381-2.528,8.112-1.335l35.158,15.327l-18.175-37.297
		c-1.479-3.026-0.778-6.658,1.715-8.92c2.494-2.267,6.16-2.612,9.038-0.853l35.493,21.758l-12.044-48.992
		c-0.858-3.489,0.857-7.102,4.1-8.644c3.233-1.552,7.126-0.601,9.295,2.277l29.639,39.263l29.647-39.268
		c2.169-2.868,6.063-3.81,9.295-2.272c3.243,1.542,4.958,5.155,4.101,8.644l-12.045,48.992l35.483-21.753
		c2.868-1.754,6.555-1.419,9.038,0.848c2.494,2.262,3.193,5.894,1.715,8.92l-18.638,38.248l33.442-13.208
		c2.691-1.06,5.776-0.488,7.905,1.469c2.139,1.966,2.957,4.978,2.119,7.757l-11.778,39.13c24.562,13.05,40.766,36.134,42.816,61.583
		l15.119,186.775h38.352L460.539,176.361z"/>
</g>
</svg>
