<?xml version="1.0" encoding="utf-8"?>
<!-- Generator: Adobe Illustrator 16.0.3, SVG Export Plug-In . SVG Version: 6.00 Build 0)  -->
<!DOCTYPE svg PUBLIC "-//W3C//DTD SVG 1.1//EN" "http://www.w3.org/Graphics/SVG/1.1/DTD/svg11.dtd">
<svg version="1.1" id="Layer_1" xmlns="http://www.w3.org/2000/svg" xmlns:xlink="http://www.w3.org/1999/xlink" x="0px" y="0px"
	 width="612px" height="792px" viewBox="0 0 612 792" enable-background="new 0 0 612 792" xml:space="preserve">
<g>
	<path d="M243.376,255.879c15.639,0,28.361-12.723,28.361-28.362s-12.723-28.361-28.361-28.361
		c-15.63,0-28.353,12.723-28.353,28.361S227.746,255.879,243.376,255.879z M243.385,220.568h1.105c3.839,0,6.955,3.115,6.955,6.955
		c0,3.839-3.115,6.954-6.955,6.954h-1.105c-3.839,0-6.954-3.115-6.954-6.954C236.431,223.683,239.545,220.568,243.385,220.568z"/>
	<path d="M487.045,304.441c-0.355-9.024-1.314-17.944-2.928-26.71H312.795c-4.152,0-7.521-3.369-7.521-7.521
		s3.369-7.521,7.521-7.521h55.408v-26.706h-18.126c-4.152,0-7.521-3.369-7.521-7.521c0-4.153,3.368-7.521,7.521-7.521h47.976
		v-26.706h-72.635c-4.152,0-7.521-3.369-7.521-7.521c0-4.153,3.369-7.521,7.521-7.521h28.331V152.61h-3.682
		c-4.152,0-7.521-3.369-7.521-7.521c0-4.152,3.369-7.521,7.521-7.521h10.597c0.211-0.017,0.392-0.122,0.606-0.122
		c0.214,0,0.395,0.105,0.605,0.122h10.744c-23.542-10.121-49.004-15.39-74.975-15.39c-102.114,0-185.417,81.117-189.417,182.263
		H487.045L487.045,304.441z M243.376,185.247c23.309,0,42.271,18.962,42.271,42.271s-18.962,42.271-42.271,42.271
		c-23.3,0-42.262-18.962-42.262-42.271S220.076,185.247,243.376,185.247z"/>
	<path d="M108.227,319.484c0.362,9.203,1.295,18.252,2.929,27.077h70.834c4.152,0,7.521,3.369,7.521,7.521
		c0,4.152-3.369,7.521-7.521,7.521h-67.336c2.496,9.187,5.563,18.124,9.35,26.706h87.924c4.152,0,7.521,3.368,7.521,7.521
		s-3.369,7.521-7.521,7.521h-80.543c5.206,9.436,11.248,18.333,17.927,26.706h50.316c4.152,0,7.521,3.368,7.521,7.521
		s-3.369,7.521-7.521,7.521h-37.058c34.442,34.943,82.251,56.677,135.076,56.677c102.124,0,185.434-81.133,189.418-182.292H108.227
		L108.227,319.484z"/>
	<path d="M160.57,503.213l-36.534-10.015l-9.087-36.813c-1.298-5.656-6.677-9.736-13.26-9.829c-6.305,0-11.684,3.895-13.167,9.458
		l-10.015,36.534l-36.905,8.995c-5.657,1.391-9.644,6.77-9.737,13.167c-0.093,6.306,3.709,11.776,9.365,13.353l36.627,10.015
		l8.994,36.813c1.391,5.749,6.77,9.736,13.075,9.829c0.093,0,0.186,0,0.186,0c6.305,0,11.683-3.894,13.167-9.365l10.107-36.627
		l36.813-8.994c5.656-1.392,9.736-6.77,9.736-13.075C170.028,510.26,166.226,504.789,160.57,503.213z"/>
	<path d="M403.423,111.44c23.831,0,43.211-19.38,43.211-43.21c0-23.831-19.38-43.119-43.211-43.119s-43.211,19.288-43.211,43.119
		S379.592,111.44,403.423,111.44z"/>
	<path d="M516.649,497.976c-2.716-2.717-7.117-2.717-9.834,0l-12.687,12.688l-12.687-12.688c-2.717-2.717-7.117-2.717-9.834,0
		c-2.717,2.716-2.717,7.117,0,9.834l12.687,12.688l-12.687,12.689c-2.717,2.716-2.717,7.117,0,9.834
		c2.718,2.718,7.117,2.717,9.834,0l12.687-12.688l12.687,12.688c2.718,2.718,7.117,2.717,9.834,0s2.717-7.118,0-9.834
		l-12.687-12.689l12.687-12.688C519.366,505.093,519.366,500.691,516.649,497.976z"/>
	<path d="M314.144,578.604c-2.716-2.717-7.117-2.717-9.834,0l-6.787,6.788l-6.787-6.788c-2.717-2.717-7.118-2.717-9.834,0
		c-2.716,2.717-2.716,7.117,0,9.834l6.788,6.79l-6.788,6.789c-2.716,2.717-2.716,7.117,0,9.834c2.718,2.717,7.118,2.717,9.834,0
		l6.787-6.788l6.787,6.788c2.728,2.728,7.129,2.706,9.834,0c2.717-2.717,2.717-7.117,0-9.834l-6.788-6.789l6.788-6.79
		C316.86,585.722,316.86,581.321,314.144,578.604z"/>
	<path d="M109.917,148.079c2.718,2.717,7.118,2.717,9.834,0l12.687-12.687l12.687,12.687c2.718,2.717,7.117,2.717,9.834,0
		c2.717-2.716,2.717-7.117,0-9.834l-12.687-12.687l12.687-12.687c2.717-2.717,2.717-7.118,0-9.834c-2.717-2.716-7.118-2.716-9.834,0
		l-12.687,12.687l-12.687-12.687c-2.717-2.716-7.118-2.716-9.834,0c-2.717,2.717-2.717,7.118,0,9.834l12.687,12.687l-12.687,12.687
		C107.201,140.962,107.201,145.363,109.917,148.079z"/>
	<path d="M512.276,161.604h-1.169c-3.839,0-6.954,3.115-6.954,6.955s3.115,6.955,6.954,6.955h1.169c3.839,0,6.954-3.115,6.954-6.955
		S516.115,161.604,512.276,161.604z"/>
	<path d="M573.183,356.688h-1.168c-3.84,0-6.955,3.115-6.955,6.955s3.115,6.955,6.955,6.955h1.168c3.84,0,6.954-3.115,6.954-6.955
		S577.022,356.688,573.183,356.688z"/>
	<path d="M56.364,322.898h1.168c3.839,0,6.955-3.115,6.955-6.954c0-3.84-3.115-6.955-6.955-6.955h-1.168
		c-3.839,0-6.955,3.115-6.955,6.955C49.409,319.783,52.524,322.898,56.364,322.898z"/>
</g>
</svg>
