<?xml version="1.0" encoding="utf-8"?>
<!-- Generator: Adobe Illustrator 16.0.3, SVG Export Plug-In . SVG Version: 6.00 Build 0)  -->
<!DOCTYPE svg PUBLIC "-//W3C//DTD SVG 1.1//EN" "http://www.w3.org/Graphics/SVG/1.1/DTD/svg11.dtd">
<svg version="1.1" id="Layer_1" xmlns="http://www.w3.org/2000/svg" xmlns:xlink="http://www.w3.org/1999/xlink" x="0px" y="0px"
	 width="612px" height="792px" viewBox="0 0 612 792" enable-background="new 0 0 612 792" xml:space="preserve">
<g>
	<path d="M285.733,138.216l-40.646,29.154c14.522,11.969,23.297,29.887,23.297,49.044c0,2.39-0.157,4.741-0.416,7.064
		c15.778-4.8,43.854-9.745,76.175,0.231c-0.275-2.398-0.45-4.825-0.45-7.295c0-12.044,3.579-23.726,9.908-33.813L285.733,138.216z"
		/>
	<circle cx="204.706" cy="216.409" r="11.415"/>
	<path d="M141.427,223.146c-0.245-2.243-0.399-4.493-0.399-6.731c0-35.121,28.568-63.688,63.679-63.688
		c9.501,0,19.673,2.553,27.083,6.064c18.333-13.147,140.517-100.767,160.439-115.053c-35.153-7.603-68.521-7.073-88.777-7.699
		L84.413,193.257c-0.008,0.057-0.016,0.116-0.025,0.173c-3.344,22.828-4.559,51.476-4.702,74.64l61.772-44.384
		C141.437,223.506,141.447,223.325,141.427,223.146z"/>
	<path d="M204.706,167.441c-26.997,0-48.964,21.967-48.964,48.973c0,3.056,0.307,6.141,0.901,9.197
		c4.388,23.059,24.602,39.767,48.063,39.767c26.997,0,48.963-21.967,48.963-48.964C253.669,189.389,231.583,167.441,204.706,167.441
		z M204.706,242.539c-14.409,0-26.134-11.716-26.134-26.125c0-14.409,11.726-26.134,26.134-26.134
		c14.408,0,26.134,11.726,26.134,26.134C230.84,230.822,219.114,242.539,204.706,242.539z"/>
	<path d="M210.323,418.623l-36.178,102.053c-12.816,36.86,9.483,76.54,54.512,90.485l6.898-197.728
		C227.159,414.874,220.26,416.226,210.323,418.623z"/>
	<path d="M112.058,358.371c0-14.875,10.598-27.327,24.637-30.202c6.096-29.605,23.336-48.156,34.85-57.558
		c-11.83-7.253-21.249-18.195-26.314-31.52l-65.539,47.095c0.795,95.745,13.983,202.593,14.116,203.68
		c0.054,35.028,25.105,63.553,57.796,68.852c-10.053-36.576-14.43-131.039-15.857-170.437
		C122.197,385.039,112.058,372.898,112.058,358.371z"/>
	<circle cx="142.881" cy="358.371" r="16.109"/>
	<path d="M435.547,90.944l6.332,2.203c7.224,2.5,15.242-1.839,17.158-9.043c0.27-0.997,12.369-45.659,12.1-44.662
		c1.781-6.62-1.936-13.613-8.469-15.893c-1.466-0.527-2.932-0.776-4.417-0.776c-5.25,0-10.011,3.143-12.138,8.009
		c-3.5,8.081-19.34,44.654-18.326,42.315C424.705,80.208,428.252,88.394,435.547,90.944z"/>
	<path d="M527.319,191.674c-2.241-14.473-5.143-26.098-8.666-34.657c-7.118-17.196-25.579-41.941-47.373-63.889
		c-0.181,0.365-0.442,0.674-0.639,1.028c-13.175,23.833-38.942,10.708-39.924,10.679c-15.388-5.338-22.919-22.714-16.42-37.611
		l6.145-14.19c-3.481-1.818-6.784-3.271-9.88-4.355L361.95,83.547L527.319,191.674z"/>
	<path d="M220.091,77.743l50.563-36.318l-5.96-3.936c-21.415,1.662-54.045,5.604-73.102,15.507l3.669,8.478L220.091,77.743z"/>
	<path d="M181.331,104.835c-3.656,0.972-23.23,10.911-37.425-6.877c-0.766-0.935-1.204-1.439-2.432-3.592
		c-0.235-0.408-0.539-0.768-0.753-1.19c-21.794,21.929-40.284,46.674-47.421,63.87c-1.754,4.25-3.358,9.352-4.816,15.18
		l95.837-68.792C183.331,103.917,182.38,104.471,181.331,104.835z"/>
	<path d="M152.907,84.056c1.973,7.243,10.068,11.563,17.263,9.091l6.333-2.203c7.24-2.532,10.863-10.676,7.76-17.857
		c-12.619-29.083-18.475-42.654-18.336-42.334c-2.117-4.838-6.878-7.98-12.128-7.98c-1.476,0-2.941,0.25-4.35,0.757
		c-6.601,2.29-10.318,9.274-8.526,15.932L152.907,84.056z"/>
	<path d="M192.069,97.873l15.226-10.929l-7.579-4.966C198.943,88.038,196.961,92.853,192.069,97.873z"/>
	<path d="M243.276,614.451c6.268,1.066,12.753,1.776,19.609,1.776h35.753V407.455c-15.961,0.24-32.136,1.504-48.273,3.779
		L243.276,614.451z"/>
	<circle cx="469.163" cy="358.371" r="16.114"/>
	<circle cx="407.382" cy="216.409" r="11.415"/>
	<path d="M407.381,265.377c27.453,0,48.964-22.283,48.964-48.963c0-27.006-21.967-48.973-48.964-48.973
		c-26.871,0-48.973,21.666-48.973,48.973C358.408,243.411,380.375,265.377,407.381,265.377z M407.381,190.28
		c14.408,0,26.125,11.726,26.125,26.134c0,14.408-11.716,26.125-26.125,26.125c-14.408,0-26.134-11.716-26.134-26.125
		C381.247,202.005,392.973,190.28,407.381,190.28z"/>
	<path d="M440.671,270.756c11.516,9.444,28.616,27.953,34.683,57.413c14.04,2.875,24.638,15.327,24.638,30.202
		c0,14.527-10.14,26.667-23.688,29.91c-1.43,39.394-5.812,133.841-15.858,170.42c32.648-5.32,57.653-33.751,57.653-67.925
		c0.18-1.879,12.15-99.406,14.021-191.487l-72.13-47.094C454.866,259.783,448.285,266.091,440.671,270.756z"/>
	<path d="M529.658,210.792L349.183,92.774c-0.985,0.705-53.96,38.63-50.627,36.244l64.173,41.968
		c10.762-8.231,20.441-18.26,44.652-18.26c35.111,0,63.679,28.568,63.679,63.688c0,12.337-3.963,21.732-4.177,22.714l65.412,42.699
		C532.439,258.789,531.766,232.459,529.658,210.792z"/>
	<path d="M438.334,358.371c0-13.974,9.412-25.675,22.184-29.442c-7.08-30.328-28.058-46.547-35.319-51.366
		c-5.693,1.645-11.674,2.53-17.817,2.53c-26.453,0-49.176-16.214-58.786-39.219c-40.6-16.113-75.705-4.069-85.035-0.209
		c-9.56,23.112-32.329,39.428-58.854,39.428c-6.109,0-11.967-1.086-17.606-2.721c-7.08,4.594-28.409,20.672-35.577,51.555
		c12.774,3.764,22.182,15.467,22.182,29.444c0,14.358-9.909,26.356-23.219,29.766c1.718,47.155,4.986,96.237,8.961,130.4
		c0.279-0.911,0.504-1.836,0.817-2.737c41.582-107.721,38.208-134.055,70.641-160.404l51.274-70.485
		c5.614-7.692,14.284-12.1,23.797-12.1c9.513,0,18.183,4.407,23.787,12.09c10.694,14.634,50.49,69.554,51.856,70.921
		c23.018,18.715,22.906,25.536,70.059,159.939c0.347,0.979,0.598,1.981,0.903,2.971c3.984-34.171,7.26-83.353,8.981-130.595
		C448.251,384.728,438.334,372.729,438.334,358.371z"/>
	<path d="M396.011,402.361c-0.898-0.981-14.722-57.393-90.034-57.393c-45.427,0-70.318,18.259-89.937,57.203
		C274.748,389.655,332.875,389.192,396.011,402.361z"/>
	<path d="M313.354,407.52v208.708h35.714c6.899,0,13.4-0.708,19.648-1.766l-7.083-203.01
		C345.229,409.18,329.181,407.883,313.354,407.52z"/>
	<path d="M350.314,338.119l-32.439-44.548c-5.595-7.664-18.192-7.673-23.807,0.01l-32.369,44.498
		c13.651-5.068,28.647-7.826,44.277-7.826C321.574,330.253,336.596,333.026,350.314,338.119z"/>
	<path d="M401.803,418.756c-10.586-2.441-17.637-3.794-25.358-5.057l6.89,197.469c42.761-13.276,68.043-52.063,54.474-90.502
		L401.803,418.756z"/>
</g>
</svg>
