<?xml version="1.0" encoding="utf-8"?>
<!-- Generator: Adobe Illustrator 16.0.3, SVG Export Plug-In . SVG Version: 6.00 Build 0)  -->
<!DOCTYPE svg PUBLIC "-//W3C//DTD SVG 1.1//EN" "http://www.w3.org/Graphics/SVG/1.1/DTD/svg11.dtd">
<svg version="1.1" id="Layer_1" xmlns="http://www.w3.org/2000/svg" xmlns:xlink="http://www.w3.org/1999/xlink" x="0px" y="0px"
	 width="612px" height="792px" viewBox="0 0 612 792" enable-background="new 0 0 612 792" xml:space="preserve">
<g>
	<path d="M213.258,411.375H100.952c5.816,28.141,17.684,54.821,34.874,78.011L213.258,411.375z"/>
	<path d="M230.573,183.946c-54.55,18.759-97.365,60.351-118.78,112.099l115.229,42.3L230.573,183.946z"/>
	<path d="M220.728,376.74c0-6.908,1.176-13.804,3.144-20.586H97.319c-0.392,5.04-0.636,10.113-0.636,15.227
		c0,8.488,0.727,16.914,1.81,25.28h124.976C221.683,390.191,220.728,383.531,220.728,376.74z"/>
	<path d="M230.932,168.328l1.33-57.822c0.096-3.999,3.362-7.194,7.357-7.194h6.85v-80.54h-40.732l-72.66,210.651
		C158.47,203.546,192.05,180.593,230.932,168.328z"/>
	<path d="M426.399,222.99c-19.551-17.316-42.422-30.711-67.006-39.17l2.236,97.057L426.399,222.99z"/>
	<path d="M357.705,110.506l1.331,57.757c28.892,9.114,55.775,24.501,78.4,44.862l9.517-8.504L384.23,22.772h-40.731v80.54h6.85
		C354.343,103.313,357.609,106.507,357.705,110.506z"/>
	<path d="M235.442,376.74c0,33.579,27.323,59.48,59.599,59.484c33.279,0,59.484-26.979,59.484-59.484
		c0-32.872-26.873-59.479-59.479-59.479C261.015,317.261,235.442,345.206,235.442,376.74z"/>
	<path d="M295.046,302.547c11.832,0,23.173,2.884,33.349,8.032l18.81-16.811l-4.05-175.742c2.6,0-94.693,0-96.341,0l-4.765,206.952
		C255.84,310.805,274.742,302.547,295.046,302.547z"/>
	<path d="M106.647,309.82c-3.375,10.244-5.912,20.81-7.58,31.62h93.689L106.647,309.82z"/>
	<path d="M366.118,356.154c1.93,6.729,3.121,13.748,3.121,20.586c0,6.782-0.956,13.447-2.745,19.92h125.107
		c1.002-8.297,1.683-16.697,1.683-25.28c0-5.102-0.208-10.179-0.591-15.226H366.118z"/>
	<path d="M392.178,327.625l86.179-31.61c-4.087-9.937-9.023-19.536-14.733-28.76L392.178,327.625z"/>
	<path d="M483.442,309.821l-86.192,31.618h93.772C489.393,330.671,486.803,320.121,483.442,309.821z"/>
	<path d="M495.133,155.578c-9.091,2.433-15.146,12.664-15.146,21.008c-0.359,12.761,1.2,16.958-2.343,20.291
		c-0.046,0.043-0.063,0.104-0.109,0.146C363.362,299.525,373.057,290.4,341.201,318.869c6.194,4.974,11.722,10.881,16.159,17.805
		c0.157,0.236,0.272,0.506,0.427,0.745l157.529-133.111v-27.755C515.316,165.249,506.331,156.004,495.133,155.578z"/>
	<path d="M295.111,450.933c-0.022,0-0.043,0.005-0.065,0.005c-0.002,0-0.002,0-0.002,0s-0.005,0-0.007,0
		c-26.25,0-50.976-14.298-64.106-36.482l-118.814,119.71c47.22,52.875,113.875,82.063,182.815,82.063
		c67.044,0,134.294-27.832,182.327-81.488l-118.69-119.571C345.268,437.265,320.264,450.907,295.111,450.933z M219.483,554.263
		h-1.092c-4.062,0-7.357-3.296-7.357-7.357s3.295-7.357,7.357-7.357h1.092c4.062,0,7.357,3.296,7.357,7.357
		S223.544,554.263,219.483,554.263z M242.1,508.813h-1.092c-4.062,0-7.357-3.296-7.357-7.357s3.295-7.356,7.357-7.356h1.092
		c4.062,0,7.357,3.295,7.357,7.356S246.162,508.813,242.1,508.813z M301.723,494.099h1.083c4.062,0,7.356,3.295,7.356,7.356
		c0,4.063-3.295,7.357-7.356,7.357h-1.083c-4.062,0-7.357-3.295-7.357-7.357C294.366,497.394,297.661,494.099,301.723,494.099z
		 M303.352,554.263h-1.093c-4.062,0-7.356-3.296-7.356-7.357s3.295-7.357,7.356-7.357h1.093c4.062,0,7.356,3.296,7.356,7.357
		S307.413,554.263,303.352,554.263z M386.137,539.548h1.093c4.062,0,7.356,3.296,7.356,7.357s-3.295,7.357-7.356,7.357h-1.093
		c-4.062,0-7.356-3.296-7.356-7.357S382.075,539.548,386.137,539.548z M363.521,494.099c4.062,0,7.356,3.295,7.356,7.356
		c0,4.063-3.295,7.357-7.356,7.357h-1.093c-4.062,0-7.356-3.295-7.356-7.357c0-4.062,3.295-7.356,7.356-7.356H363.521z"/>
	<path d="M453.853,490.276c17.778-23.235,29.75-49.936,35.443-78.901h-113.76L453.853,490.276z"/>
</g>
</svg>
