<?xml version="1.0" encoding="utf-8"?>
<!-- Generator: Adobe Illustrator 16.0.3, SVG Export Plug-In . SVG Version: 6.00 Build 0)  -->
<!DOCTYPE svg PUBLIC "-//W3C//DTD SVG 1.1//EN" "http://www.w3.org/Graphics/SVG/1.1/DTD/svg11.dtd">
<svg version="1.1" id="Layer_1" xmlns="http://www.w3.org/2000/svg" xmlns:xlink="http://www.w3.org/1999/xlink" x="0px" y="0px"
	 width="612px" height="792px" viewBox="0 0 612 792" enable-background="new 0 0 612 792" xml:space="preserve">
<g>
	<path d="M278.208,294.986c4.96,93.246,49.893,94.134,55.33,0H278.208z M305.873,206.461c-18.387,0-26.537,51.345-27.544,70.483
		h55.088C332.093,251.565,324.638,210.67,305.873,206.461z M260.167,294.986H227.09c3.248,28.987,21.771,53.042,47.51,63.868
		C265.458,340.691,261.13,316.395,260.167,294.986z M227.21,276.944h32.956c0.963-21.29,5.292-46.067,14.553-63.868
		C248.38,224.142,230.338,248.559,227.21,276.944z M351.58,294.986c-0.964,21.409-5.294,45.947-14.435,63.748
		c26.942-11.667,44.384-36.324,47.391-63.748H351.58z M337.146,213.076c9.262,18.162,13.592,42.458,14.435,63.868h32.956
		C381.408,248.197,362.523,224.142,337.146,213.076z"/>
	<path d="M329.774,156.401c0,7.753-3.738,14.666-9.528,18.962v12.704c-9.062-1.214-18.683-1.121-28.772,0.654v-13.358
		c-5.698-4.296-9.435-11.209-9.435-18.962c0-13.078,10.649-23.82,23.82-23.82C319.124,132.581,329.774,143.323,329.774,156.401z"/>
	<path d="M335.284,418.519c0,16.254-13.171,29.425-29.425,29.425c-16.253,0-29.519-13.171-29.519-29.425
		c0-8.688,3.737-16.534,9.808-21.859h-0.186v-18.028c13.078,2.522,26.622,2.616,39.794,0.28v17.748h-0.28
		C331.549,401.984,335.284,409.831,335.284,418.519z"/>
	<g>
		<path d="M209.831,301.471h-2.616v-31.013h2.522c0.748-4.764,1.868-9.434,3.364-14.012h-12.612l-41.755-3.082v-7.1
			c0-3.923-3.083-7.006-7.006-7.006h-8.221V178.82c0-3.923-3.175-7.006-7.006-7.006c-3.83,0-7.006,3.083-7.006,7.006v60.438h-8.221
			c-3.922,0-7.006,3.083-7.006,7.006v4.764l-38.953-1.868v-13.825c0-3.83-3.177-7.006-7.006-7.006H56.073V118.101
			c0-3.83-3.177-7.006-7.006-7.006c-3.924,0-7.006,3.176-7.006,7.006v110.228H29.823c-3.923,0-7.006,3.176-7.006,7.006v41.102
			c0,3.923,3.083,7.006,7.006,7.006h12.238v18.216H29.823c-3.923,0-7.006,3.176-7.006,7.006v41.102c0,3.923,3.083,7.006,7.006,7.006
			h12.238v157.12H16.279c-3.924,0-7.006,3.177-7.006,7.006c0,3.924,3.082,7.007,7.006,7.007h65.576c3.829,0,7.006-3.082,7.006-7.007
			c0-3.829-3.177-7.006-7.006-7.006H56.073v-157.12h12.238c3.829,0,7.006-3.083,7.006-7.006v-16.067l38.953-11.49v7.006
			c0,3.923,3.083,7.006,7.006,7.006h8.221v143.95h-25.782c-3.831,0-7.006,3.083-7.006,7.006c0,3.83,3.175,7.006,7.006,7.006h65.576
			c3.924,0,7.006-3.176,7.006-7.006c0-3.923-3.082-7.006-7.006-7.006h-25.782v-143.95h8.221c3.922,0,7.006-3.083,7.006-7.006
			v-11.303l41.849-2.335c0.187,0,0.187-0.093,0.28-0.093h12.33C211.699,311,210.579,306.329,209.831,301.471z M129.496,289.608
			h-8.221c-3.922,0-7.006,3.176-7.006,7.006v10.929l-38.953,11.583v-10.462c0-3.831-3.177-7.006-7.006-7.006H56.073v-18.216h12.238
			c3.829,0,7.006-3.083,7.006-7.006v-13.265l38.953,1.869v13.825c0,3.83,3.083,7.006,7.006,7.006h8.221V289.608L129.496,289.608z
			 M193.203,301.938l-34.469,1.962v-7.286c0-3.83-3.083-7.006-7.006-7.006h-8.221v-3.737h8.221c3.922,0,7.006-3.176,7.006-7.006
			v-11.489l34.469,2.521V301.938z"/>
		<path d="M595.722,513.893h-25.876v-157.12h12.237c3.923,0,7.007-3.083,7.007-7.006v-41.102c0-3.831-3.084-7.006-7.007-7.006
			h-12.237v-18.216h12.237c3.923,0,7.007-3.083,7.007-7.006v-41.102c0-3.83-3.084-7.006-7.007-7.006h-12.237V118.101
			c0-3.83-3.083-7.006-7.006-7.006c-3.83,0-7.006,3.176-7.006,7.006v110.228h-12.238c-3.829,0-7.006,3.176-7.006,7.006v13.825
			l-38.859,1.868v-4.764c0-3.923-3.177-7.006-7.006-7.006h-8.314V178.82c0-3.923-3.081-7.006-7.007-7.006
			c-3.829,0-7.006,3.083-7.006,7.006v60.438h-8.219c-3.924,0-7.006,3.083-7.006,7.006v7.099l-41.756,3.083h-12.799
			c1.495,4.578,2.616,9.248,3.364,14.012h2.708v31.014h-2.802c-0.748,4.857-1.869,9.528-3.364,14.012h12.519
			c0.094,0,0.188,0.094,0.28,0.094l41.85,2.335v11.304c0,3.923,3.082,7.006,7.006,7.006h8.219v143.949h-25.782
			c-3.829,0-7.006,3.083-7.006,7.006c0,3.831,3.177,7.007,7.006,7.007h65.576c3.924,0,7.007-3.176,7.007-7.007
			c0-3.923-3.083-7.006-7.007-7.006h-25.782v-143.95h8.315c3.829,0,7.006-3.083,7.006-7.006v-7.006l38.859,11.489v16.067
			c0,3.923,3.177,7.006,7.006,7.006h12.238v157.12h-25.782c-3.831,0-7.007,3.177-7.007,7.006c0,3.924,3.176,7.007,7.007,7.007
			h65.669c3.83,0,7.007-3.083,7.007-7.007C602.728,517.069,599.551,513.893,595.722,513.893z M468.397,289.608h-8.219
			c-3.924,0-7.006,3.176-7.006,7.006v7.286l-34.471-1.962v-32.041l34.471-2.521v11.489c0,3.83,3.082,7.006,7.006,7.006h8.219
			V289.608L468.397,289.608z M555.834,301.658h-12.238c-3.829,0-7.006,3.176-7.006,7.006v10.462l-38.859-11.583v-10.929
			c0-3.83-3.177-7.006-7.006-7.006h-8.314v-3.737h8.314c3.829,0,7.006-3.176,7.006-7.006v-13.825l38.859-1.869v13.265
			c0,3.923,3.177,7.006,7.006,7.006h12.238V301.658z"/>
	</g>
</g>
</svg>
